<?xml version="1.0" standalone="no"?><!DOCTYPE svg PUBLIC "-//W3C//DTD SVG 1.1//EN" "http://www.w3.org/Graphics/SVG/1.1/DTD/svg11.dtd"><svg t="1624966673095" class="icon" viewBox="0 0 1024 1024" version="1.1" xmlns="http://www.w3.org/2000/svg" p-id="566" xmlns:xlink="http://www.w3.org/1999/xlink" width="200" height="200"><defs><style type="text/css"></style></defs><path d="M92.915738 122.581655c-56.578001 77.717476-68.42831 183.70388-21.316105 274.949656 47.104177 91.293948 140.34909 142.990521 236.508409 141.930737 56.578001-77.74959 68.420282-183.70388 21.308076-274.981771-47.112205-91.269862-140.333033-142.982492-236.50038-141.898622z" fill="#0D5C9E" p-id="567"></path><path d="M308.108042 539.454019c56.578001-77.74959 68.420282-183.70388 21.308076-274.98177-47.112205-91.261833-140.333033-142.982492-236.50038-141.898623" fill="#009BE8" p-id="568"></path><path d="M305.097293 551.513074c-103.473432 0-196.838776-56.666316-244.19987-148.46607-47.874928-92.72305-39.340458-202.908447 22.279545-287.55466a12.059055 12.059055 0 0 1 9.602283-4.953686l3.18738-0.016058c103.433289 0 196.766518 56.650259 244.151698 148.425927 47.8669 92.739108 39.332429 202.932533-22.271517 287.594803a12.042997 12.042997 0 0 1-9.602283 4.953687l-3.147236 0.016057zM99.137953 134.624652c-53.021303 76.545291-59.580722 174.599374-16.83611 257.382938 42.712497 82.791592 126.4595 134.247305 219.592012 135.411461 53.005245-76.561348 59.556636-174.62346 16.828082-257.415052-42.736583-82.783563-126.483586-134.231248-219.583984-135.379347z" fill="#33363A" p-id="569"></path><path d="M931.084262 122.581655c56.578001 77.717476 68.42831 183.70388 21.316105 274.949656-47.104177 91.293948-140.341061 142.990521-236.508409 141.930737-56.578001-77.74959-68.420282-183.70388-21.308076-274.981771 47.112205-91.269862 140.333033-142.982492 236.50038-141.898622z" fill="#0D5C9E" p-id="570"></path><path d="M715.891958 539.454019c-56.578001-77.74959-68.420282-183.70388-21.308076-274.98177 47.112205-91.261833 140.333033-142.982492 236.50038-141.898623" fill="#009BE8" p-id="571"></path><path d="M718.902707 551.513074l-3.147236-0.016057a12.042997 12.042997 0 0 1-9.602283-4.953687c-61.603945-84.662271-70.138416-194.863724-22.271517-287.586774 47.377151-91.783696 140.726437-148.433956 244.151698-148.433956l3.18738 0.016058c3.805587 0.048172 7.362286 1.878708 9.602283 4.953686 61.620003 84.646213 70.162502 194.839638 22.279545 287.562688-47.361094 91.791725-140.734466 148.458042-244.19987 148.458042z m205.95934-416.888422c-93.108426 1.148099-176.8474 52.595783-219.583984 135.379347s-36.177164 180.845676 16.828082 257.415052c93.132512-1.164156 176.871486-52.627898 219.592012-135.403433 42.744612-82.791592 36.185192-180.845676-16.83611-257.390966z" fill="#33363A" p-id="572"></path><path d="M1011.957003 552.725402c0 210.078044-223.839176 380.406169-499.952989 380.406169S12.042997 762.803447 12.042997 552.725402c0-210.094102 223.839176-461.848945 499.952989-461.848945s499.961017 251.754843 499.961017 461.848945z" fill="#009BE8" p-id="573"></path><path d="M1011.957003 552.725402c0 210.078044-223.839176 380.406169-499.952989 380.406169S12.042997 762.803447 12.042997 552.725402c0-210.094102 223.839176-354.858957 499.952989-354.858957s499.961017 144.764856 499.961017 354.858957z" fill="#0D5C9E" p-id="574"></path><path d="M1011.957003 552.725402c0 210.078044-223.839176 380.406169-499.952989 380.406169S12.042997 762.803447 12.042997 552.725402c0-210.110159 63.611112 186.337282 499.952989 186.337283s499.961017-396.447441 499.961017-186.337283z" fill="#063B66" p-id="575"></path><path d="M657.387077 309.432772L511.995986 454.823863 366.612923 309.432772c-184.402374 28.509789-317.509609 115.612774-317.509609 271.481273 0 194.510463 207.235897 352.209498 462.892672 352.209498s462.892671-157.707064 462.892671-352.209498c0.008029-155.852442-133.099206-242.971484-317.50158-271.481273z" fill="#F4D7B8" p-id="576"></path><path d="M836.474475 365.504967c-49.978439-27.016457-111.020377-45.554644-179.095426-56.072195L511.995986 454.823863 366.612923 309.432772c-68.075049 10.52558-129.116988 29.055738-179.095427 56.072195 83.530229 62.487098 198.059133 101.096948 324.47849 101.096948 126.419357 0 240.948261-38.601821 324.478489-101.096948z" fill="#FCE6C8" p-id="577"></path><path d="M974.896686 580.914045a242.947398 242.947398 0 0 0-7.354257-60.118643c-57.589613 65.674478-184.803807 218.267282-455.538415 218.267283S114.047184 586.469881 56.457571 520.795402a242.57808 242.57808 0 0 0-7.354257 60.118643c0 188.424735 194.494406 342.318183 439.063594 351.743835a669.831508 669.831508 0 0 0 23.829078 0.473691c7.988522 0 15.920842-0.184659 23.829077-0.473691 244.577217-9.425653 439.071623-163.3191 439.071623-351.743835z" fill="#EAC79D" p-id="578"></path><path d="M511.995986 945.174569c-261.87899 0-474.935669-163.407416-474.935669-364.252496 0-150.071803 116.383526-250.719146 327.714041-283.387783a12.123284 12.123284 0 0 1 10.356978 3.388097L512.004014 437.803094l136.86465-136.888736a12.010883 12.010883 0 0 1 10.356978-3.388096c211.330516 32.668637 327.714042 133.307951 327.714041 283.387783 0 200.853108-213.056679 364.260524-474.943697 364.260524zM362.438017 322.294693C247.090189 341.089797 61.146311 399.586649 61.146311 580.914045c0 187.565668 202.250096 340.166501 450.849675 340.1665s450.849674-152.600833 450.849674-340.1665c0-181.335424-185.943878-239.824248-301.291706-258.627381L520.514399 463.342277c-4.520138 4.520138-12.516688 4.520138-17.028798 0L362.438017 322.294693z" fill="#33363A" p-id="579"></path><path d="M511.995986 945.174569C229.684044 945.174569 0 769.122006 0 552.725402 0 338.071019 228.3834 78.825431 511.995986 78.825431s511.995986 259.245588 511.995985 473.891943c0.008029 216.404632-229.676015 392.457195-511.995985 392.457195z m0-842.263143C241.727041 102.911426 24.085995 348.990003 24.085995 552.725402c0 203.117192 218.877461 368.363172 487.909991 368.363172s487.909991-165.24598 487.909991-368.363172c0.008029-203.735399-217.633018-449.813976-487.909991-449.813976z" fill="#33363A" p-id="580"></path><path d="M611.679888 658.519119c0 20.978901-44.631348 9.20085-99.683902 9.20085s-99.683903 11.778051-99.683903-9.20085 44.631348-38.007699 99.683903-38.007699 99.683903 17.028798 99.683902 38.007699z" fill="#FCE6C8" p-id="581"></path><path d="M430.400665 588.573391a12.059055 12.059055 0 0 1-11.344504-7.99655c-8.285582-23.251013-24.65603-38.30476-48.64568-44.719663-22.327717-5.981355-49.858009-3.821644-77.540845 6.061642a12.042997 12.042997 0 1 1-8.100923-22.689007c32.243118-11.505077 64.863583-13.873533 91.863983-6.639706 31.648997 8.470241 54.161373 29.184197 65.112472 59.901868a12.042997 12.042997 0 0 1-11.344503 16.081416zM593.591306 588.573391a12.042997 12.042997 0 0 1-11.344503-16.089444c10.951099-30.717672 33.471504-51.431627 65.120501-59.901869 26.992371-7.225798 59.620865-4.857342 91.863983 6.639706a12.042997 12.042997 0 0 1-8.100923 22.689007c-27.682836-9.883286-55.221157-12.051026-77.540845-6.061642-23.997679 6.422932-40.368127 21.46865-48.653709 44.719663-1.766306 4.9296-6.398846 8.004579-11.344504 8.004579zM679.44182 651.47798a12.034969 12.034969 0 0 0-3.18738-1.075841l-28.212729-4.833256a12.067083 12.067083 0 0 0-13.905647 9.851171l-4.664654 27.345633c-25.924559 7.587088-65.369389 14.082278-117.483453 14.082278s-91.558894-6.503219-117.483453-14.082278l-4.664654-27.345633a12.067083 12.067083 0 0 0-13.905647-9.851171l-28.212729 4.833256a11.753965 11.753965 0 0 0-3.18738 1.075841 12.018911 12.018911 0 0 0-10.244576 11.858338c0 39.573289 92.112872 57.597642 177.69041 57.597642s177.69041-18.024353 177.690411-57.597642a11.978768 11.978768 0 0 0-10.228519-11.858338z m-311.078648 21.195675c-0.666379-0.369319-1.156128-0.714551-1.766307-1.067812l1.533475-0.264946 0.232832 1.332758z m287.498459-1.332758l1.533475 0.264946c-0.60215 0.36129-1.091898 0.706523-1.766306 1.067812l0.232831-1.332758z" fill="#33363A" p-id="582"></path></svg>